<?xml version="1.0" standalone="no"?>
<!DOCTYPE svg PUBLIC "-//W3C//DTD SVG 20010904//EN"
 "http://www.w3.org/TR/2001/REC-SVG-20010904/DTD/svg10.dtd">
<svg version="1.0" xmlns="http://www.w3.org/2000/svg"
 width="388.000000pt" height="404.000000pt" viewBox="0 0 388.000000 404.000000"
 preserveAspectRatio="xMidYMid meet">
<metadata>
Created by potrace 1.16, written by Peter Selinger 2001-2019
</metadata>
<g transform="translate(0.000000,404.000000) scale(0.100000,-0.100000)"
fill="#000000" stroke="none">
<path d="M1785 4024 c-322 -32 -498 -75 -717 -178 -196 -91 -335 -187 -502
-347 -168 -160 -291 -333 -403 -566 -65 -134 -148 -367 -138 -384 17 -27 36
-2 66 89 164 496 444 855 860 1099 281 164 594 243 965 243 466 0 885 -132
1201 -377 329 -255 550 -579 693 -1015 20 -63 39 -83 54 -59 10 16 -83 271
-144 396 -293 603 -802 975 -1475 1079 -99 15 -383 28 -460 20z"/>
<path d="M1655 3745 c-321 -44 -618 -177 -874 -391 -176 -147 -341 -373 -415
-567 -57 -151 -72 -205 -58 -219 18 -18 29 -1 56 87 110 365 402 699 772 884
478 239 1080 239 1556 1 225 -112 380 -240 564 -465 78 -95 191 -301 248 -452
29 -77 41 -92 59 -74 13 13 5 39 -61 190 -191 439 -555 777 -997 928 -77 26
-203 56 -305 74 -105 17 -431 20 -545 4z"/>
<path d="M1598 3345 c-88 -46 -132 -108 -150 -214 -11 -70 -10 -179 3 -204 14
-25 61 -19 74 10 6 13 16 21 25 19 8 -3 39 -8 67 -11 43 -6 55 -11 65 -33 20
-40 64 -67 109 -67 34 0 46 6 70 33 30 33 30 33 147 39 108 5 120 4 152 -16
19 -11 49 -21 65 -21 27 0 70 21 85 40 3 4 23 10 44 13 22 4 43 12 48 19 15
25 9 123 -12 166 -25 51 -47 66 -158 106 -48 18 -122 56 -166 85 -70 47 -87
55 -150 62 -39 4 -111 8 -161 8 -83 0 -95 -3 -157 -34z m377 -24 c30 -4 69
-18 89 -32 19 -13 34 -24 33 -25 -1 -1 -77 -4 -168 -7 l-166 -6 -16 35 c-10
19 -17 40 -17 46 0 10 127 5 245 -11z m415 -308 c-1 -29 -23 -33 -217 -39
-198 -7 -201 -7 -212 14 l-11 22 197 3 c109 1 208 3 221 5 12 1 22 -1 22 -5z"/>
<path d="M2218 2256 c-55 -20 -86 -43 -108 -79 -17 -28 -20 -51 -20 -178 0
-136 2 -148 23 -180 37 -55 99 -84 182 -84 58 0 78 5 116 27 56 33 82 70 83
117 l1 36 -53 3 c-50 3 -53 2 -63 -26 -18 -52 -95 -69 -143 -31 -25 20 -26 23
-26 139 0 117 0 119 28 140 38 30 107 23 137 -14 18 -22 29 -26 73 -26 58 0
62 7 38 63 -37 87 -163 130 -268 93z"/>
<path d="M100 2000 l0 -261 58 3 57 3 3 103 3 102 109 0 110 0 0 55 0 55 -110
0 -110 0 0 45 0 44 128 3 127 3 0 50 0 50 -187 3 -188 2 0 -260z"/>
<path d="M685 2247 c-3 -7 -4 -123 -3 -257 l3 -245 183 -3 182 -2 0 55 0 55
-125 0 -125 0 0 205 0 205 -55 0 c-36 0 -57 -5 -60 -13z"/>
<path d="M1146 2252 c-3 -4 32 -73 77 -153 l81 -144 6 -105 5 -105 58 -3 57
-3 0 95 0 94 85 158 c47 86 85 161 85 166 0 5 -28 8 -62 6 l-63 -3 -46 -88
c-25 -49 -49 -89 -53 -90 -3 -1 -28 39 -55 88 l-48 90 -61 3 c-33 2 -63 -1
-66 -6z"/>
<path d="M2853 2248 c-13 -17 -183 -479 -183 -496 0 -9 15 -12 58 -10 l57 3
15 43 15 43 99 -3 99 -3 15 -42 14 -43 59 0 c32 0 59 4 59 8 0 10 -176 488
-185 502 -9 15 -111 12 -122 -2z"/>
<path d="M3345 2248 c-3 -7 -4 -124 -3 -258 l3 -245 58 -3 57 -3 0 206 0 205
70 0 c57 0 74 -4 90 -20 41 -41 17 -99 -46 -109 l-39 -6 -2 -60 c-3 -58 -1
-63 50 -135 l52 -75 59 -3 c32 -2 63 1 67 5 5 5 -16 46 -47 92 l-56 83 41 34
c47 41 65 88 59 156 -6 56 -30 94 -79 123 -29 17 -56 21 -181 23 -118 3 -149
1 -153 -10z"/>
<path d="M3822 1574 c-5 -11 -20 -50 -32 -89 -55 -168 -146 -373 -228 -510
-20 -33 -70 -105 -111 -160 -266 -353 -603 -575 -1048 -689 -107 -28 -261 -46
-438 -53 -564 -20 -1079 190 -1431 583 -220 246 -337 454 -453 807 -30 90 -49
115 -66 88 -10 -18 83 -280 149 -416 121 -251 219 -391 407 -576 362 -357 804
-531 1354 -531 553 0 1055 209 1416 590 223 236 376 500 485 842 28 89 31 107
20 119 -12 11 -16 10 -24 -5z"/>
<path d="M3500 1488 c-150 -420 -456 -775 -832 -964 -399 -200 -906 -230
-1328 -78 -223 80 -462 239 -631 419 -139 149 -299 417 -333 560 -22 90 -39
135 -51 135 -25 0 -26 -19 -5 -96 153 -543 627 -984 1200 -1114 143 -32 238
-42 400 -42 539 2 1008 228 1333 644 120 154 203 304 283 511 39 102 41 117
15 117 -14 0 -26 -20 -51 -92z"/>
</g>
</svg>
